<svg height="400" viewBox="0 0 400 400" width="400" xmlns="http://www.w3.org/2000/svg"><g fill-rule="evenodd"><path d="m26 26v350h350v-350zm-18-18h386v386h-386z" fill-rule="nonzero"/><path d="m58.648 110.08h12.672v-20.16h-12.672v-7.92h22.032v28.08h13.32v7.92h-35.352zm10.944-37.872c0-1.4880074.5519945-2.7599947 1.656-3.816s2.6399902-1.584 4.608-1.584c2.0160101 0 3.623994.5279947 4.824 1.584s1.8 2.3279926 1.8 3.816c0 1.5360077-.599994 2.7959951-1.8 3.78s-2.8079899 1.476-4.824 1.476c-1.9680098 0-3.5039945-.4919951-4.608-1.476s-1.656-2.2439923-1.656-3.78z"/><path d="m184.44 67.6h11.952v38.304c0 2.928015.491995 4.991994 1.476 6.192s2.43599 1.8 4.356 1.8c1.344007 0 2.711993-.263997 4.104-.792s2.663994-1.271995 3.816-2.232l2.592 3.816c-.768004.672003-1.607995 1.271997-2.52 1.8s-1.847995.971998-2.808 1.332-1.919995.635999-2.88.828-1.847996.288-2.664.288c-1.776009 0-3.359993-.227998-4.752-.684s-2.555995-1.187995-3.492-2.196-1.643998-2.339992-2.124-3.996-.72-3.707988-.72-6.156v-33.48h-6.336z"/><path d="m326.792 112.456h2.736l8.928-30.456h5.832l-10.008 32.328c-.528003 1.680008-1.067997 3.587989-1.62 5.724s-1.331995 4.139991-2.34 6.012-2.375991 3.455994-4.104 4.752-3.983986 1.944-6.768 1.944c-.624003 0-1.283997-.071999-1.98-.216s-1.379997-.323999-2.052-.54-1.295997-.467999-1.872-.756-1.007999-.575999-1.296-.864l2.016-5.184c.288001.240001.683997.479999 1.188.72s1.055997.443999 1.656.612 1.187997.311999 1.764.432 1.055998.18 1.44.18c3.600018 0 6.047994-3.04797 7.344-9.144h-4.824l-15.12-36h6.48z"/><path d="m62.176 192.808c2.0640103-1.200006 4.391987-2.063997 6.984-2.592s5.1359875-.792 7.632-.792c2.4480122 0 4.4519922.383996 6.012 1.152s2.7839956 1.763994 3.672 2.988 1.4879984 2.615992 1.8 4.176.468 3.131992.468 4.716c0 1.824009-.0479995 3.76799-.144 5.832s-.1679998 4.12799-.216 6.192c0 2.400012.1439986 4.679989.432 6.84h4.824v4.68h-9.576l-.648-5.4h-.36c-.2880014.432002-.7199971.983997-1.296 1.656s-1.3319953 1.331997-2.268 1.98-2.0759933 1.211998-3.42 1.692-2.9279909.72-4.752.72c-3.5520178 0-6.3599897-.911991-8.424-2.736s-3.096-4.319984-3.096-7.488c0-2.448012.5399946-4.487992 1.62-6.12s2.6279899-2.879996 4.644-3.744 4.4519857-1.367999 7.308-1.512 6.0599822.047997 9.612.576c.2400012-2.208011.2760008-4.043993.108-5.508s-.551997-2.627996-1.152-3.492-1.4399946-1.475998-2.52-1.836-2.4119921-.54-3.996-.54c-2.1600108 0-4.2239902.299997-6.192.9s-3.7199923 1.211997-5.256 1.836zm10.584 29.016c1.3440067 0 2.5919942-.215998 3.744-.648s2.1599957-.983997 3.024-1.656 1.5839971-1.403996 2.16-2.196 1.0079986-1.547996 1.296-2.268v-5.04c-2.4960125-.432002-4.7999894-.648-6.912-.648s-3.9359923.227998-5.472.684-2.7359957 1.163995-3.6 2.124-1.296 2.207992-1.296 3.744c0 1.584008.5399946 2.963994 1.62 4.14s2.8919873 1.764 5.436 1.764z"/><path d="m179.4 175.6h15.264v28.728h2.16l11.808-14.328h11.016l-14.544 16.416 9.432 11.664h6.696v7.92h-11.664l-12.384-14.904h-2.52v14.904h-9.36v-42.48h-5.904z"/><path d="m306.92 208c0-3.024015.455995-5.711988 1.368-8.064s2.207992-4.343992 3.888-5.976 3.683988-2.867996 6.012-3.708 4.931986-1.26 7.812-1.26c3.024015 0 5.723988.455995 8.1 1.368s4.379992 2.195992 6.012 3.852 2.867996 3.659988 3.708 6.012 1.26 4.943986 1.26 7.776c0 3.024015-.455995 5.711988-1.368 8.064s-2.207992 4.343992-3.888 5.976-3.683988 2.867996-6.012 3.708-4.931986 1.26-7.812 1.26c-3.024015 0-5.723988-.455995-8.1-1.368s-4.379992-2.195992-6.012-3.852-2.867996-3.659988-3.708-6.012-1.26-4.943986-1.26-7.776zm9.648 0c0 1.584008.215998 3.047993.648 4.392s1.055996 2.519995 1.872 3.528 1.799994 1.787997 2.952 2.34 2.471993.828 3.96.828c2.784014 0 5.051991-.887991 6.804-2.664s2.628-4.583981 2.628-8.424c0-3.312017-.815992-5.98799-2.448-8.028s-3.959985-3.06-6.984-3.06c-1.344007 0-2.591994.203998-3.744.612s-2.147996 1.067995-2.988 1.98-1.499998 2.063993-1.98 3.456-.72 3.07199-.72 5.04z"/><path d="m58.504 316c0-5.808029 1.5119849-10.403983 4.536-13.788s7.3439719-5.076 12.96-5.076c3.0240151 0 5.6279891.491995 7.812 1.476s3.9959928 2.315992 5.436 3.996 2.5079965 3.671988 3.204 5.976 1.044 4.775987 1.044 7.416c0 2.880014-.3839962 5.483988-1.152 7.812s-1.8959926 4.307992-3.384 5.94-3.3239891 2.891996-5.508 3.78-4.6679861 1.332-7.452 1.332c-2.9760149 0-5.567989-.491995-7.776-1.476s-4.0319928-2.315992-5.472-3.996-2.5079965-3.671988-3.204-5.976-1.044-4.775987-1.044-7.416zm5.976 0c0 1.680008.203998 3.359992.612 5.04s1.0679954 3.191993 1.98 4.536 2.0999927 2.423996 3.564 3.24 3.2519894 1.224 5.364 1.224c3.8400192 0 6.7319903-1.187988 8.676-3.564s2.916-5.867977 2.916-10.476c0-1.728009-.203998-3.419992-.612-5.076s-1.0799953-3.155993-2.016-4.5-2.1359927-2.423996-3.6-3.24-3.2519894-1.224-5.364-1.224c-3.8400192 0-6.7199904 1.175988-8.64 3.528s-2.88 5.855977-2.88 10.512z"/><path d="m183.504 316c0-5.808029 1.511985-10.403983 4.536-13.788s7.343972-5.076 12.96-5.076c3.024015 0 5.627989.491995 7.812 1.476s3.995993 2.315992 5.436 3.996 2.507997 3.671988 3.204 5.976 1.044 4.775987 1.044 7.416c0 2.880014-.383996 5.483988-1.152 7.812s-1.895993 4.307992-3.384 5.94-3.323989 2.891996-5.508 3.78-4.667986 1.332-7.452 1.332c-2.976015 0-5.567989-.491995-7.776-1.476s-4.031993-2.315992-5.472-3.996-2.507997-3.671988-3.204-5.976-1.044-4.775987-1.044-7.416zm5.976 0c0 1.680008.203998 3.359992.612 5.04s1.067995 3.191993 1.98 4.536 2.099993 2.423996 3.564 3.24 3.251989 1.224 5.364 1.224c3.840019 0 6.73199-1.187988 8.676-3.564s2.916-5.867977 2.916-10.476c0-1.728009-.203998-3.419992-.612-5.076s-1.079995-3.155993-2.016-4.5-2.135993-2.423996-3.6-3.24-3.251989-1.224-5.364-1.224c-3.840019 0-6.71999 1.175988-8.64 3.528s-2.88 5.855977-2.88 10.512z"/><path d="m308.36 308.8c0-4.08002.359996-7.739984 1.08-10.98s1.799993-5.975989 3.24-8.208 3.263989-3.935994 5.472-5.112 4.823985-1.764 7.848-1.764c3.216016 0 5.939989.575994 8.172 1.728s4.043993 2.831989 5.436 5.04 2.399997 4.931984 3.024 8.172.936 6.947979.936 11.124c0 4.08002-.359996 7.739984-1.08 10.98s-1.799993 5.975989-3.24 8.208-3.263989 3.935994-5.472 5.112-4.823985 1.764-7.848 1.764c-3.168016 0-5.867989-.635994-8.1-1.908s-4.055993-3.059988-5.472-5.364-2.435997-5.051984-3.06-8.244-.936-6.707981-.936-10.548zm29.304 0c0-2.544013-.143999-4.967988-.432-7.272l-21.384 19.512c.816004 2.736014 2.039992 4.919992 3.672 6.552s3.767987 2.448 6.408 2.448c4.224021 0 7.235991-1.751982 9.036-5.256s2.7-8.831964 2.7-15.984zm-23.328 0c0 1.200006.036 2.351994.108 3.456s.156 2.183995.252 3.24l21.456-19.44c-.816004-2.592013-2.027992-4.655992-3.636-6.192s-3.779986-2.304-6.516-2.304c-4.272021 0-7.283991 1.763982-9.036 5.292s-2.628 8.843964-2.628 15.948z"/></g></svg>