
<svg width="236px" height="212px" viewBox="0 0 236 212" version="1.1" xmlns="http://www.w3.org/2000/svg" xmlns:xlink="http://www.w3.org/1999/xlink">
    <g id="Page-1" stroke="none" stroke-width="1" fill="none" fill-rule="evenodd" stroke-linecap="square">
        <g id="webring" transform="translate(20.000000, 19.000000)" fill="#000000" fill-rule="nonzero">
            <g id="Group" transform="translate(92.000000, 134.320508) rotate(120.000000) translate(-92.000000, -134.320508) translate(12.000000, 74.320508)">
                <path d="M60,-14 L74,-14 L74,14 L60,14 C34.5949015,14 14,34.5949015 14,60 C14,85.4050985 34.5949015,106 60,106 L174,106 L174,134 L60,134 C19.1309285,134 -14,100.869071 -14,60 C-14,19.1309285 19.1309285,-14 60,-14 Z" id="Path"></path>
            </g>
            <g id="Group" transform="translate(92.000000, 99.679492) rotate(-120.000000) translate(-92.000000, -99.679492) translate(12.000000, 39.679492)">
                <path d="M60,-14 L74,-14 L74,14 L60,14 C34.5949015,14 14,34.5949015 14,60 C14,85.4050985 34.5949015,106 60,106 L174,106 L174,134 L60,134 C19.1309285,134 -14,100.869071 -14,60 C-14,19.1309285 19.1309285,-14 60,-14 Z" id="Path"></path>
            </g>
            <g id="Group" transform="translate(42.000000, 57.000000)">
                <path d="M60,-14 L74,-14 L74,14 L60,14 C34.5949015,14 14,34.5949015 14,60 C14,85.4050985 34.5949015,106 60,106 L174,106 L174,134 L60,134 C19.1309285,134 -14,100.869071 -14,60 C-14,19.1309285 19.1309285,-14 60,-14 Z" id="Path"></path>
            </g>
        </g>
    </g>
</svg>