<svg height="212" viewBox="0 0 236 212" width="236" xmlns="http://www.w3.org/2000/svg"><g stroke-linecap="square" transform="translate(20 19)"><path d="m60-14h14v28h-14c-25.4050985 0-46 20.5949015-46 46s20.5949015 46 46 46h114v28h-114c-40.8690715 0-74-33.130929-74-74 0-40.8690715 33.1309285-74 74-74z" transform="matrix(-.5 .8660254 -.8660254 -.5 183.961524 95.038476)"/><path d="m60-14h14v28h-14c-25.4050985 0-46 20.5949015-46 46s20.5949015 46 46 46h114v28h-114c-40.8690715 0-74-33.130929-74-74 0-40.8690715 33.1309285-74 74-74z" transform="matrix(-.5 -.8660254 .8660254 -.5 80.038476 198.961524)"/><path d="m60-14h14v28h-14c-25.4050985 0-46 20.5949015-46 46s20.5949015 46 46 46h114v28h-114c-40.8690715 0-74-33.130929-74-74 0-40.8690715 33.1309285-74 74-74z" transform="translate(42 57)"/></g></svg>