<svg height="4.34cm" preserveAspectRatio="none" viewBox="0 0 41 41" width="4.34cm" xmlns="http://www.w3.org/2000/svg"><path d="m0 0h41v41h-41z" fill="#fff"/><path d="m4 4h1v1h-1z"/><path d="m5 4h1v1h-1z"/><path d="m6 4h1v1h-1z"/><path d="m7 4h1v1h-1z"/><path d="m8 4h1v1h-1z"/><path d="m9 4h1v1h-1z"/><path d="m10 4h1v1h-1z"/><path d="m13 4h1v1h-1z"/><path d="m19 4h1v1h-1z"/><path d="m20 4h1v1h-1z"/><path d="m21 4h1v1h-1z"/><path d="m23 4h1v1h-1z"/><path d="m25 4h1v1h-1z"/><path d="m26 4h1v1h-1z"/><path d="m27 4h1v1h-1z"/><path d="m28 4h1v1h-1z"/><path d="m30 4h1v1h-1z"/><path d="m31 4h1v1h-1z"/><path d="m32 4h1v1h-1z"/><path d="m33 4h1v1h-1z"/><path d="m34 4h1v1h-1z"/><path d="m35 4h1v1h-1z"/><path d="m36 4h1v1h-1z"/><path d="m4 5h1v1h-1z"/><path d="m10 5h1v1h-1z"/><path d="m12 5h1v1h-1z"/><path d="m13 5h1v1h-1z"/><path d="m15 5h1v1h-1z"/><path d="m16 5h1v1h-1z"/><path d="m22 5h1v1h-1z"/><path d="m24 5h1v1h-1z"/><path d="m26 5h1v1h-1z"/><path d="m28 5h1v1h-1z"/><path d="m30 5h1v1h-1z"/><path d="m36 5h1v1h-1z"/><path d="m4 6h1v1h-1z"/><path d="m6 6h1v1h-1z"/><path d="m7 6h1v1h-1z"/><path d="m8 6h1v1h-1z"/><path d="m10 6h1v1h-1z"/><path d="m13 6h1v1h-1z"/><path d="m14 6h1v1h-1z"/><path d="m15 6h1v1h-1z"/><path d="m18 6h1v1h-1z"/><path d="m20 6h1v1h-1z"/><path d="m25 6h1v1h-1z"/><path d="m27 6h1v1h-1z"/><path d="m28 6h1v1h-1z"/><path d="m30 6h1v1h-1z"/><path d="m32 6h1v1h-1z"/><path d="m33 6h1v1h-1z"/><path d="m34 6h1v1h-1z"/><path d="m36 6h1v1h-1z"/><path d="m4 7h1v1h-1z"/><path d="m6 7h1v1h-1z"/><path d="m7 7h1v1h-1z"/><path d="m8 7h1v1h-1z"/><path d="m10 7h1v1h-1z"/><path d="m12 7h1v1h-1z"/><path d="m13 7h1v1h-1z"/><path d="m15 7h1v1h-1z"/><path d="m20 7h1v1h-1z"/><path d="m21 7h1v1h-1z"/><path d="m22 7h1v1h-1z"/><path d="m23 7h1v1h-1z"/><path d="m24 7h1v1h-1z"/><path d="m26 7h1v1h-1z"/><path d="m27 7h1v1h-1z"/><path d="m30 7h1v1h-1z"/><path d="m32 7h1v1h-1z"/><path d="m33 7h1v1h-1z"/><path d="m34 7h1v1h-1z"/><path d="m36 7h1v1h-1z"/><path d="m4 8h1v1h-1z"/><path d="m6 8h1v1h-1z"/><path d="m7 8h1v1h-1z"/><path d="m8 8h1v1h-1z"/><path d="m10 8h1v1h-1z"/><path d="m14 8h1v1h-1z"/><path d="m16 8h1v1h-1z"/><path d="m17 8h1v1h-1z"/><path d="m18 8h1v1h-1z"/><path d="m19 8h1v1h-1z"/><path d="m23 8h1v1h-1z"/><path d="m27 8h1v1h-1z"/><path d="m30 8h1v1h-1z"/><path d="m32 8h1v1h-1z"/><path d="m33 8h1v1h-1z"/><path d="m34 8h1v1h-1z"/><path d="m36 8h1v1h-1z"/><path d="m4 9h1v1h-1z"/><path d="m10 9h1v1h-1z"/><path d="m12 9h1v1h-1z"/><path d="m14 9h1v1h-1z"/><path d="m17 9h1v1h-1z"/><path d="m18 9h1v1h-1z"/><path d="m19 9h1v1h-1z"/><path d="m20 9h1v1h-1z"/><path d="m21 9h1v1h-1z"/><path d="m24 9h1v1h-1z"/><path d="m26 9h1v1h-1z"/><path d="m30 9h1v1h-1z"/><path d="m36 9h1v1h-1z"/><path d="m4 10h1v1h-1z"/><path d="m5 10h1v1h-1z"/><path d="m6 10h1v1h-1z"/><path d="m7 10h1v1h-1z"/><path d="m8 10h1v1h-1z"/><path d="m9 10h1v1h-1z"/><path d="m10 10h1v1h-1z"/><path d="m12 10h1v1h-1z"/><path d="m14 10h1v1h-1z"/><path d="m16 10h1v1h-1z"/><path d="m18 10h1v1h-1z"/><path d="m20 10h1v1h-1z"/><path d="m22 10h1v1h-1z"/><path d="m24 10h1v1h-1z"/><path d="m26 10h1v1h-1z"/><path d="m28 10h1v1h-1z"/><path d="m30 10h1v1h-1z"/><path d="m31 10h1v1h-1z"/><path d="m32 10h1v1h-1z"/><path d="m33 10h1v1h-1z"/><path d="m34 10h1v1h-1z"/><path d="m35 10h1v1h-1z"/><path d="m36 10h1v1h-1z"/><path d="m16 11h1v1h-1z"/><path d="m17 11h1v1h-1z"/><path d="m19 11h1v1h-1z"/><path d="m23 11h1v1h-1z"/><path d="m24 11h1v1h-1z"/><path d="m25 11h1v1h-1z"/><path d="m4 12h1v1h-1z"/><path d="m5 12h1v1h-1z"/><path d="m6 12h1v1h-1z"/><path d="m7 12h1v1h-1z"/><path d="m8 12h1v1h-1z"/><path d="m10 12h1v1h-1z"/><path d="m11 12h1v1h-1z"/><path d="m12 12h1v1h-1z"/><path d="m13 12h1v1h-1z"/><path d="m14 12h1v1h-1z"/><path d="m16 12h1v1h-1z"/><path d="m18 12h1v1h-1z"/><path d="m19 12h1v1h-1z"/><path d="m21 12h1v1h-1z"/><path d="m22 12h1v1h-1z"/><path d="m24 12h1v1h-1z"/><path d="m26 12h1v1h-1z"/><path d="m29 12h1v1h-1z"/><path d="m31 12h1v1h-1z"/><path d="m33 12h1v1h-1z"/><path d="m35 12h1v1h-1z"/><path d="m4 13h1v1h-1z"/><path d="m5 13h1v1h-1z"/><path d="m6 13h1v1h-1z"/><path d="m8 13h1v1h-1z"/><path d="m11 13h1v1h-1z"/><path d="m12 13h1v1h-1z"/><path d="m13 13h1v1h-1z"/><path d="m19 13h1v1h-1z"/><path d="m20 13h1v1h-1z"/><path d="m23 13h1v1h-1z"/><path d="m24 13h1v1h-1z"/><path d="m27 13h1v1h-1z"/><path d="m28 13h1v1h-1z"/><path d="m29 13h1v1h-1z"/><path d="m30 13h1v1h-1z"/><path d="m33 13h1v1h-1z"/><path d="m36 13h1v1h-1z"/><path d="m4 14h1v1h-1z"/><path d="m8 14h1v1h-1z"/><path d="m9 14h1v1h-1z"/><path d="m10 14h1v1h-1z"/><path d="m11 14h1v1h-1z"/><path d="m12 14h1v1h-1z"/><path d="m13 14h1v1h-1z"/><path d="m15 14h1v1h-1z"/><path d="m16 14h1v1h-1z"/><path d="m24 14h1v1h-1z"/><path d="m25 14h1v1h-1z"/><path d="m26 14h1v1h-1z"/><path d="m29 14h1v1h-1z"/><path d="m33 14h1v1h-1z"/><path d="m35 14h1v1h-1z"/><path d="m4 15h1v1h-1z"/><path d="m5 15h1v1h-1z"/><path d="m6 15h1v1h-1z"/><path d="m13 15h1v1h-1z"/><path d="m14 15h1v1h-1z"/><path d="m15 15h1v1h-1z"/><path d="m18 15h1v1h-1z"/><path d="m20 15h1v1h-1z"/><path d="m25 15h1v1h-1z"/><path d="m26 15h1v1h-1z"/><path d="m28 15h1v1h-1z"/><path d="m29 15h1v1h-1z"/><path d="m31 15h1v1h-1z"/><path d="m33 15h1v1h-1z"/><path d="m34 15h1v1h-1z"/><path d="m35 15h1v1h-1z"/><path d="m36 15h1v1h-1z"/><path d="m6 16h1v1h-1z"/><path d="m7 16h1v1h-1z"/><path d="m10 16h1v1h-1z"/><path d="m13 16h1v1h-1z"/><path d="m15 16h1v1h-1z"/><path d="m20 16h1v1h-1z"/><path d="m21 16h1v1h-1z"/><path d="m22 16h1v1h-1z"/><path d="m26 16h1v1h-1z"/><path d="m27 16h1v1h-1z"/><path d="m29 16h1v1h-1z"/><path d="m31 16h1v1h-1z"/><path d="m32 16h1v1h-1z"/><path d="m4 17h1v1h-1z"/><path d="m5 17h1v1h-1z"/><path d="m7 17h1v1h-1z"/><path d="m11 17h1v1h-1z"/><path d="m13 17h1v1h-1z"/><path d="m14 17h1v1h-1z"/><path d="m16 17h1v1h-1z"/><path d="m17 17h1v1h-1z"/><path d="m18 17h1v1h-1z"/><path d="m19 17h1v1h-1z"/><path d="m23 17h1v1h-1z"/><path d="m24 17h1v1h-1z"/><path d="m25 17h1v1h-1z"/><path d="m26 17h1v1h-1z"/><path d="m27 17h1v1h-1z"/><path d="m30 17h1v1h-1z"/><path d="m36 17h1v1h-1z"/><path d="m7 18h1v1h-1z"/><path d="m9 18h1v1h-1z"/><path d="m10 18h1v1h-1z"/><path d="m11 18h1v1h-1z"/><path d="m13 18h1v1h-1z"/><path d="m17 18h1v1h-1z"/><path d="m18 18h1v1h-1z"/><path d="m19 18h1v1h-1z"/><path d="m20 18h1v1h-1z"/><path d="m21 18h1v1h-1z"/><path d="m24 18h1v1h-1z"/><path d="m29 18h1v1h-1z"/><path d="m30 18h1v1h-1z"/><path d="m33 18h1v1h-1z"/><path d="m34 18h1v1h-1z"/><path d="m35 18h1v1h-1z"/><path d="m5 19h1v1h-1z"/><path d="m8 19h1v1h-1z"/><path d="m13 19h1v1h-1z"/><path d="m16 19h1v1h-1z"/><path d="m17 19h1v1h-1z"/><path d="m19 19h1v1h-1z"/><path d="m22 19h1v1h-1z"/><path d="m23 19h1v1h-1z"/><path d="m24 19h1v1h-1z"/><path d="m25 19h1v1h-1z"/><path d="m27 19h1v1h-1z"/><path d="m30 19h1v1h-1z"/><path d="m31 19h1v1h-1z"/><path d="m33 19h1v1h-1z"/><path d="m34 19h1v1h-1z"/><path d="m6 20h1v1h-1z"/><path d="m10 20h1v1h-1z"/><path d="m12 20h1v1h-1z"/><path d="m14 20h1v1h-1z"/><path d="m16 20h1v1h-1z"/><path d="m18 20h1v1h-1z"/><path d="m19 20h1v1h-1z"/><path d="m21 20h1v1h-1z"/><path d="m26 20h1v1h-1z"/><path d="m28 20h1v1h-1z"/><path d="m29 20h1v1h-1z"/><path d="m32 20h1v1h-1z"/><path d="m35 20h1v1h-1z"/><path d="m7 21h1v1h-1z"/><path d="m9 21h1v1h-1z"/><path d="m11 21h1v1h-1z"/><path d="m12 21h1v1h-1z"/><path d="m19 21h1v1h-1z"/><path d="m20 21h1v1h-1z"/><path d="m22 21h1v1h-1z"/><path d="m23 21h1v1h-1z"/><path d="m24 21h1v1h-1z"/><path d="m27 21h1v1h-1z"/><path d="m30 21h1v1h-1z"/><path d="m33 21h1v1h-1z"/><path d="m35 21h1v1h-1z"/><path d="m36 21h1v1h-1z"/><path d="m4 22h1v1h-1z"/><path d="m6 22h1v1h-1z"/><path d="m8 22h1v1h-1z"/><path d="m10 22h1v1h-1z"/><path d="m12 22h1v1h-1z"/><path d="m13 22h1v1h-1z"/><path d="m15 22h1v1h-1z"/><path d="m16 22h1v1h-1z"/><path d="m21 22h1v1h-1z"/><path d="m24 22h1v1h-1z"/><path d="m30 22h1v1h-1z"/><path d="m35 22h1v1h-1z"/><path d="m4 23h1v1h-1z"/><path d="m5 23h1v1h-1z"/><path d="m6 23h1v1h-1z"/><path d="m7 23h1v1h-1z"/><path d="m8 23h1v1h-1z"/><path d="m9 23h1v1h-1z"/><path d="m11 23h1v1h-1z"/><path d="m12 23h1v1h-1z"/><path d="m13 23h1v1h-1z"/><path d="m14 23h1v1h-1z"/><path d="m15 23h1v1h-1z"/><path d="m18 23h1v1h-1z"/><path d="m20 23h1v1h-1z"/><path d="m22 23h1v1h-1z"/><path d="m23 23h1v1h-1z"/><path d="m25 23h1v1h-1z"/><path d="m26 23h1v1h-1z"/><path d="m30 23h1v1h-1z"/><path d="m31 23h1v1h-1z"/><path d="m33 23h1v1h-1z"/><path d="m34 23h1v1h-1z"/><path d="m35 23h1v1h-1z"/><path d="m5 24h1v1h-1z"/><path d="m6 24h1v1h-1z"/><path d="m8 24h1v1h-1z"/><path d="m10 24h1v1h-1z"/><path d="m12 24h1v1h-1z"/><path d="m14 24h1v1h-1z"/><path d="m15 24h1v1h-1z"/><path d="m21 24h1v1h-1z"/><path d="m22 24h1v1h-1z"/><path d="m24 24h1v1h-1z"/><path d="m26 24h1v1h-1z"/><path d="m28 24h1v1h-1z"/><path d="m29 24h1v1h-1z"/><path d="m32 24h1v1h-1z"/><path d="m36 24h1v1h-1z"/><path d="m4 25h1v1h-1z"/><path d="m5 25h1v1h-1z"/><path d="m6 25h1v1h-1z"/><path d="m7 25h1v1h-1z"/><path d="m8 25h1v1h-1z"/><path d="m9 25h1v1h-1z"/><path d="m11 25h1v1h-1z"/><path d="m12 25h1v1h-1z"/><path d="m16 25h1v1h-1z"/><path d="m17 25h1v1h-1z"/><path d="m18 25h1v1h-1z"/><path d="m19 25h1v1h-1z"/><path d="m23 25h1v1h-1z"/><path d="m24 25h1v1h-1z"/><path d="m25 25h1v1h-1z"/><path d="m27 25h1v1h-1z"/><path d="m29 25h1v1h-1z"/><path d="m30 25h1v1h-1z"/><path d="m34 25h1v1h-1z"/><path d="m36 25h1v1h-1z"/><path d="m4 26h1v1h-1z"/><path d="m8 26h1v1h-1z"/><path d="m9 26h1v1h-1z"/><path d="m10 26h1v1h-1z"/><path d="m11 26h1v1h-1z"/><path d="m13 26h1v1h-1z"/><path d="m14 26h1v1h-1z"/><path d="m17 26h1v1h-1z"/><path d="m18 26h1v1h-1z"/><path d="m19 26h1v1h-1z"/><path d="m22 26h1v1h-1z"/><path d="m24 26h1v1h-1z"/><path d="m25 26h1v1h-1z"/><path d="m28 26h1v1h-1z"/><path d="m30 26h1v1h-1z"/><path d="m31 26h1v1h-1z"/><path d="m32 26h1v1h-1z"/><path d="m33 26h1v1h-1z"/><path d="m35 26h1v1h-1z"/><path d="m4 27h1v1h-1z"/><path d="m6 27h1v1h-1z"/><path d="m8 27h1v1h-1z"/><path d="m11 27h1v1h-1z"/><path d="m13 27h1v1h-1z"/><path d="m16 27h1v1h-1z"/><path d="m17 27h1v1h-1z"/><path d="m19 27h1v1h-1z"/><path d="m20 27h1v1h-1z"/><path d="m22 27h1v1h-1z"/><path d="m25 27h1v1h-1z"/><path d="m26 27h1v1h-1z"/><path d="m27 27h1v1h-1z"/><path d="m28 27h1v1h-1z"/><path d="m31 27h1v1h-1z"/><path d="m32 27h1v1h-1z"/><path d="m33 27h1v1h-1z"/><path d="m34 27h1v1h-1z"/><path d="m36 27h1v1h-1z"/><path d="m4 28h1v1h-1z"/><path d="m7 28h1v1h-1z"/><path d="m8 28h1v1h-1z"/><path d="m9 28h1v1h-1z"/><path d="m10 28h1v1h-1z"/><path d="m11 28h1v1h-1z"/><path d="m13 28h1v1h-1z"/><path d="m14 28h1v1h-1z"/><path d="m16 28h1v1h-1z"/><path d="m18 28h1v1h-1z"/><path d="m19 28h1v1h-1z"/><path d="m20 28h1v1h-1z"/><path d="m21 28h1v1h-1z"/><path d="m22 28h1v1h-1z"/><path d="m23 28h1v1h-1z"/><path d="m24 28h1v1h-1z"/><path d="m26 28h1v1h-1z"/><path d="m28 28h1v1h-1z"/><path d="m29 28h1v1h-1z"/><path d="m30 28h1v1h-1z"/><path d="m31 28h1v1h-1z"/><path d="m32 28h1v1h-1z"/><path d="m12 29h1v1h-1z"/><path d="m20 29h1v1h-1z"/><path d="m21 29h1v1h-1z"/><path d="m23 29h1v1h-1z"/><path d="m25 29h1v1h-1z"/><path d="m26 29h1v1h-1z"/><path d="m27 29h1v1h-1z"/><path d="m28 29h1v1h-1z"/><path d="m32 29h1v1h-1z"/><path d="m34 29h1v1h-1z"/><path d="m36 29h1v1h-1z"/><path d="m4 30h1v1h-1z"/><path d="m5 30h1v1h-1z"/><path d="m6 30h1v1h-1z"/><path d="m7 30h1v1h-1z"/><path d="m8 30h1v1h-1z"/><path d="m9 30h1v1h-1z"/><path d="m10 30h1v1h-1z"/><path d="m12 30h1v1h-1z"/><path d="m15 30h1v1h-1z"/><path d="m16 30h1v1h-1z"/><path d="m19 30h1v1h-1z"/><path d="m22 30h1v1h-1z"/><path d="m25 30h1v1h-1z"/><path d="m26 30h1v1h-1z"/><path d="m27 30h1v1h-1z"/><path d="m28 30h1v1h-1z"/><path d="m30 30h1v1h-1z"/><path d="m32 30h1v1h-1z"/><path d="m33 30h1v1h-1z"/><path d="m34 30h1v1h-1z"/><path d="m35 30h1v1h-1z"/><path d="m4 31h1v1h-1z"/><path d="m10 31h1v1h-1z"/><path d="m13 31h1v1h-1z"/><path d="m15 31h1v1h-1z"/><path d="m18 31h1v1h-1z"/><path d="m20 31h1v1h-1z"/><path d="m24 31h1v1h-1z"/><path d="m25 31h1v1h-1z"/><path d="m28 31h1v1h-1z"/><path d="m32 31h1v1h-1z"/><path d="m33 31h1v1h-1z"/><path d="m34 31h1v1h-1z"/><path d="m36 31h1v1h-1z"/><path d="m4 32h1v1h-1z"/><path d="m6 32h1v1h-1z"/><path d="m7 32h1v1h-1z"/><path d="m8 32h1v1h-1z"/><path d="m10 32h1v1h-1z"/><path d="m12 32h1v1h-1z"/><path d="m13 32h1v1h-1z"/><path d="m15 32h1v1h-1z"/><path d="m19 32h1v1h-1z"/><path d="m20 32h1v1h-1z"/><path d="m21 32h1v1h-1z"/><path d="m23 32h1v1h-1z"/><path d="m26 32h1v1h-1z"/><path d="m28 32h1v1h-1z"/><path d="m29 32h1v1h-1z"/><path d="m30 32h1v1h-1z"/><path d="m31 32h1v1h-1z"/><path d="m32 32h1v1h-1z"/><path d="m33 32h1v1h-1z"/><path d="m35 32h1v1h-1z"/><path d="m4 33h1v1h-1z"/><path d="m6 33h1v1h-1z"/><path d="m7 33h1v1h-1z"/><path d="m8 33h1v1h-1z"/><path d="m10 33h1v1h-1z"/><path d="m12 33h1v1h-1z"/><path d="m14 33h1v1h-1z"/><path d="m16 33h1v1h-1z"/><path d="m17 33h1v1h-1z"/><path d="m18 33h1v1h-1z"/><path d="m20 33h1v1h-1z"/><path d="m22 33h1v1h-1z"/><path d="m23 33h1v1h-1z"/><path d="m24 33h1v1h-1z"/><path d="m25 33h1v1h-1z"/><path d="m27 33h1v1h-1z"/><path d="m28 33h1v1h-1z"/><path d="m29 33h1v1h-1z"/><path d="m32 33h1v1h-1z"/><path d="m34 33h1v1h-1z"/><path d="m35 33h1v1h-1z"/><path d="m36 33h1v1h-1z"/><path d="m4 34h1v1h-1z"/><path d="m6 34h1v1h-1z"/><path d="m7 34h1v1h-1z"/><path d="m8 34h1v1h-1z"/><path d="m10 34h1v1h-1z"/><path d="m12 34h1v1h-1z"/><path d="m13 34h1v1h-1z"/><path d="m17 34h1v1h-1z"/><path d="m18 34h1v1h-1z"/><path d="m19 34h1v1h-1z"/><path d="m21 34h1v1h-1z"/><path d="m24 34h1v1h-1z"/><path d="m26 34h1v1h-1z"/><path d="m27 34h1v1h-1z"/><path d="m28 34h1v1h-1z"/><path d="m29 34h1v1h-1z"/><path d="m30 34h1v1h-1z"/><path d="m31 34h1v1h-1z"/><path d="m33 34h1v1h-1z"/><path d="m4 35h1v1h-1z"/><path d="m10 35h1v1h-1z"/><path d="m12 35h1v1h-1z"/><path d="m13 35h1v1h-1z"/><path d="m16 35h1v1h-1z"/><path d="m17 35h1v1h-1z"/><path d="m19 35h1v1h-1z"/><path d="m20 35h1v1h-1z"/><path d="m22 35h1v1h-1z"/><path d="m25 35h1v1h-1z"/><path d="m27 35h1v1h-1z"/><path d="m29 35h1v1h-1z"/><path d="m31 35h1v1h-1z"/><path d="m33 35h1v1h-1z"/><path d="m34 35h1v1h-1z"/><path d="m4 36h1v1h-1z"/><path d="m5 36h1v1h-1z"/><path d="m6 36h1v1h-1z"/><path d="m7 36h1v1h-1z"/><path d="m8 36h1v1h-1z"/><path d="m9 36h1v1h-1z"/><path d="m10 36h1v1h-1z"/><path d="m12 36h1v1h-1z"/><path d="m13 36h1v1h-1z"/><path d="m14 36h1v1h-1z"/><path d="m16 36h1v1h-1z"/><path d="m18 36h1v1h-1z"/><path d="m19 36h1v1h-1z"/><path d="m20 36h1v1h-1z"/><path d="m21 36h1v1h-1z"/><path d="m22 36h1v1h-1z"/><path d="m26 36h1v1h-1z"/><path d="m28 36h1v1h-1z"/><path d="m31 36h1v1h-1z"/><path d="m32 36h1v1h-1z"/><path d="m35 36h1v1h-1z"/></svg>