<svg height="3.92cm" preserveAspectRatio="none" viewBox="0 0 37 37" width="3.92cm" xmlns="http://www.w3.org/2000/svg"><path d="m0 0h37v37h-37z" fill="#fff"/><path d="m4 4h1v1h-1z"/><path d="m5 4h1v1h-1z"/><path d="m6 4h1v1h-1z"/><path d="m7 4h1v1h-1z"/><path d="m8 4h1v1h-1z"/><path d="m9 4h1v1h-1z"/><path d="m10 4h1v1h-1z"/><path d="m12 4h1v1h-1z"/><path d="m15 4h1v1h-1z"/><path d="m16 4h1v1h-1z"/><path d="m19 4h1v1h-1z"/><path d="m20 4h1v1h-1z"/><path d="m24 4h1v1h-1z"/><path d="m26 4h1v1h-1z"/><path d="m27 4h1v1h-1z"/><path d="m28 4h1v1h-1z"/><path d="m29 4h1v1h-1z"/><path d="m30 4h1v1h-1z"/><path d="m31 4h1v1h-1z"/><path d="m32 4h1v1h-1z"/><path d="m4 5h1v1h-1z"/><path d="m10 5h1v1h-1z"/><path d="m12 5h1v1h-1z"/><path d="m13 5h1v1h-1z"/><path d="m14 5h1v1h-1z"/><path d="m16 5h1v1h-1z"/><path d="m17 5h1v1h-1z"/><path d="m18 5h1v1h-1z"/><path d="m20 5h1v1h-1z"/><path d="m24 5h1v1h-1z"/><path d="m26 5h1v1h-1z"/><path d="m32 5h1v1h-1z"/><path d="m4 6h1v1h-1z"/><path d="m6 6h1v1h-1z"/><path d="m7 6h1v1h-1z"/><path d="m8 6h1v1h-1z"/><path d="m10 6h1v1h-1z"/><path d="m14 6h1v1h-1z"/><path d="m15 6h1v1h-1z"/><path d="m16 6h1v1h-1z"/><path d="m18 6h1v1h-1z"/><path d="m19 6h1v1h-1z"/><path d="m20 6h1v1h-1z"/><path d="m21 6h1v1h-1z"/><path d="m23 6h1v1h-1z"/><path d="m26 6h1v1h-1z"/><path d="m28 6h1v1h-1z"/><path d="m29 6h1v1h-1z"/><path d="m30 6h1v1h-1z"/><path d="m32 6h1v1h-1z"/><path d="m4 7h1v1h-1z"/><path d="m6 7h1v1h-1z"/><path d="m7 7h1v1h-1z"/><path d="m8 7h1v1h-1z"/><path d="m10 7h1v1h-1z"/><path d="m14 7h1v1h-1z"/><path d="m18 7h1v1h-1z"/><path d="m22 7h1v1h-1z"/><path d="m23 7h1v1h-1z"/><path d="m26 7h1v1h-1z"/><path d="m28 7h1v1h-1z"/><path d="m29 7h1v1h-1z"/><path d="m30 7h1v1h-1z"/><path d="m32 7h1v1h-1z"/><path d="m4 8h1v1h-1z"/><path d="m6 8h1v1h-1z"/><path d="m7 8h1v1h-1z"/><path d="m8 8h1v1h-1z"/><path d="m10 8h1v1h-1z"/><path d="m12 8h1v1h-1z"/><path d="m13 8h1v1h-1z"/><path d="m14 8h1v1h-1z"/><path d="m15 8h1v1h-1z"/><path d="m17 8h1v1h-1z"/><path d="m18 8h1v1h-1z"/><path d="m19 8h1v1h-1z"/><path d="m23 8h1v1h-1z"/><path d="m26 8h1v1h-1z"/><path d="m28 8h1v1h-1z"/><path d="m29 8h1v1h-1z"/><path d="m30 8h1v1h-1z"/><path d="m32 8h1v1h-1z"/><path d="m4 9h1v1h-1z"/><path d="m10 9h1v1h-1z"/><path d="m12 9h1v1h-1z"/><path d="m15 9h1v1h-1z"/><path d="m19 9h1v1h-1z"/><path d="m22 9h1v1h-1z"/><path d="m23 9h1v1h-1z"/><path d="m26 9h1v1h-1z"/><path d="m32 9h1v1h-1z"/><path d="m4 10h1v1h-1z"/><path d="m5 10h1v1h-1z"/><path d="m6 10h1v1h-1z"/><path d="m7 10h1v1h-1z"/><path d="m8 10h1v1h-1z"/><path d="m9 10h1v1h-1z"/><path d="m10 10h1v1h-1z"/><path d="m12 10h1v1h-1z"/><path d="m14 10h1v1h-1z"/><path d="m16 10h1v1h-1z"/><path d="m18 10h1v1h-1z"/><path d="m20 10h1v1h-1z"/><path d="m22 10h1v1h-1z"/><path d="m24 10h1v1h-1z"/><path d="m26 10h1v1h-1z"/><path d="m27 10h1v1h-1z"/><path d="m28 10h1v1h-1z"/><path d="m29 10h1v1h-1z"/><path d="m30 10h1v1h-1z"/><path d="m31 10h1v1h-1z"/><path d="m32 10h1v1h-1z"/><path d="m12 11h1v1h-1z"/><path d="m14 11h1v1h-1z"/><path d="m15 11h1v1h-1z"/><path d="m16 11h1v1h-1z"/><path d="m18 11h1v1h-1z"/><path d="m19 11h1v1h-1z"/><path d="m20 11h1v1h-1z"/><path d="m22 11h1v1h-1z"/><path d="m4 12h1v1h-1z"/><path d="m5 12h1v1h-1z"/><path d="m6 12h1v1h-1z"/><path d="m9 12h1v1h-1z"/><path d="m10 12h1v1h-1z"/><path d="m12 12h1v1h-1z"/><path d="m13 12h1v1h-1z"/><path d="m14 12h1v1h-1z"/><path d="m17 12h1v1h-1z"/><path d="m18 12h1v1h-1z"/><path d="m20 12h1v1h-1z"/><path d="m21 12h1v1h-1z"/><path d="m22 12h1v1h-1z"/><path d="m25 12h1v1h-1z"/><path d="m26 12h1v1h-1z"/><path d="m27 12h1v1h-1z"/><path d="m28 12h1v1h-1z"/><path d="m31 12h1v1h-1z"/><path d="m32 12h1v1h-1z"/><path d="m4 13h1v1h-1z"/><path d="m5 13h1v1h-1z"/><path d="m6 13h1v1h-1z"/><path d="m11 13h1v1h-1z"/><path d="m13 13h1v1h-1z"/><path d="m14 13h1v1h-1z"/><path d="m17 13h1v1h-1z"/><path d="m18 13h1v1h-1z"/><path d="m22 13h1v1h-1z"/><path d="m24 13h1v1h-1z"/><path d="m25 13h1v1h-1z"/><path d="m27 13h1v1h-1z"/><path d="m28 13h1v1h-1z"/><path d="m32 13h1v1h-1z"/><path d="m4 14h1v1h-1z"/><path d="m8 14h1v1h-1z"/><path d="m10 14h1v1h-1z"/><path d="m12 14h1v1h-1z"/><path d="m15 14h1v1h-1z"/><path d="m19 14h1v1h-1z"/><path d="m20 14h1v1h-1z"/><path d="m21 14h1v1h-1z"/><path d="m25 14h1v1h-1z"/><path d="m26 14h1v1h-1z"/><path d="m28 14h1v1h-1z"/><path d="m29 14h1v1h-1z"/><path d="m7 15h1v1h-1z"/><path d="m8 15h1v1h-1z"/><path d="m9 15h1v1h-1z"/><path d="m12 15h1v1h-1z"/><path d="m13 15h1v1h-1z"/><path d="m17 15h1v1h-1z"/><path d="m21 15h1v1h-1z"/><path d="m22 15h1v1h-1z"/><path d="m24 15h1v1h-1z"/><path d="m25 15h1v1h-1z"/><path d="m27 15h1v1h-1z"/><path d="m29 15h1v1h-1z"/><path d="m30 15h1v1h-1z"/><path d="m32 15h1v1h-1z"/><path d="m4 16h1v1h-1z"/><path d="m6 16h1v1h-1z"/><path d="m8 16h1v1h-1z"/><path d="m9 16h1v1h-1z"/><path d="m10 16h1v1h-1z"/><path d="m11 16h1v1h-1z"/><path d="m13 16h1v1h-1z"/><path d="m15 16h1v1h-1z"/><path d="m16 16h1v1h-1z"/><path d="m17 16h1v1h-1z"/><path d="m23 16h1v1h-1z"/><path d="m28 16h1v1h-1z"/><path d="m30 16h1v1h-1z"/><path d="m31 16h1v1h-1z"/><path d="m32 16h1v1h-1z"/><path d="m5 17h1v1h-1z"/><path d="m7 17h1v1h-1z"/><path d="m8 17h1v1h-1z"/><path d="m11 17h1v1h-1z"/><path d="m16 17h1v1h-1z"/><path d="m20 17h1v1h-1z"/><path d="m24 17h1v1h-1z"/><path d="m26 17h1v1h-1z"/><path d="m28 17h1v1h-1z"/><path d="m31 17h1v1h-1z"/><path d="m4 18h1v1h-1z"/><path d="m6 18h1v1h-1z"/><path d="m9 18h1v1h-1z"/><path d="m10 18h1v1h-1z"/><path d="m11 18h1v1h-1z"/><path d="m12 18h1v1h-1z"/><path d="m16 18h1v1h-1z"/><path d="m17 18h1v1h-1z"/><path d="m18 18h1v1h-1z"/><path d="m19 18h1v1h-1z"/><path d="m21 18h1v1h-1z"/><path d="m22 18h1v1h-1z"/><path d="m25 18h1v1h-1z"/><path d="m28 18h1v1h-1z"/><path d="m29 18h1v1h-1z"/><path d="m30 18h1v1h-1z"/><path d="m32 18h1v1h-1z"/><path d="m4 19h1v1h-1z"/><path d="m5 19h1v1h-1z"/><path d="m6 19h1v1h-1z"/><path d="m7 19h1v1h-1z"/><path d="m8 19h1v1h-1z"/><path d="m14 19h1v1h-1z"/><path d="m15 19h1v1h-1z"/><path d="m16 19h1v1h-1z"/><path d="m18 19h1v1h-1z"/><path d="m21 19h1v1h-1z"/><path d="m22 19h1v1h-1z"/><path d="m24 19h1v1h-1z"/><path d="m25 19h1v1h-1z"/><path d="m27 19h1v1h-1z"/><path d="m28 19h1v1h-1z"/><path d="m29 19h1v1h-1z"/><path d="m5 20h1v1h-1z"/><path d="m7 20h1v1h-1z"/><path d="m8 20h1v1h-1z"/><path d="m10 20h1v1h-1z"/><path d="m13 20h1v1h-1z"/><path d="m14 20h1v1h-1z"/><path d="m17 20h1v1h-1z"/><path d="m18 20h1v1h-1z"/><path d="m20 20h1v1h-1z"/><path d="m22 20h1v1h-1z"/><path d="m23 20h1v1h-1z"/><path d="m25 20h1v1h-1z"/><path d="m28 20h1v1h-1z"/><path d="m32 20h1v1h-1z"/><path d="m5 21h1v1h-1z"/><path d="m8 21h1v1h-1z"/><path d="m9 21h1v1h-1z"/><path d="m12 21h1v1h-1z"/><path d="m14 21h1v1h-1z"/><path d="m17 21h1v1h-1z"/><path d="m18 21h1v1h-1z"/><path d="m19 21h1v1h-1z"/><path d="m20 21h1v1h-1z"/><path d="m21 21h1v1h-1z"/><path d="m22 21h1v1h-1z"/><path d="m27 21h1v1h-1z"/><path d="m28 21h1v1h-1z"/><path d="m31 21h1v1h-1z"/><path d="m4 22h1v1h-1z"/><path d="m5 22h1v1h-1z"/><path d="m9 22h1v1h-1z"/><path d="m10 22h1v1h-1z"/><path d="m13 22h1v1h-1z"/><path d="m14 22h1v1h-1z"/><path d="m15 22h1v1h-1z"/><path d="m21 22h1v1h-1z"/><path d="m23 22h1v1h-1z"/><path d="m25 22h1v1h-1z"/><path d="m28 22h1v1h-1z"/><path d="m30 22h1v1h-1z"/><path d="m32 22h1v1h-1z"/><path d="m9 23h1v1h-1z"/><path d="m11 23h1v1h-1z"/><path d="m13 23h1v1h-1z"/><path d="m14 23h1v1h-1z"/><path d="m17 23h1v1h-1z"/><path d="m22 23h1v1h-1z"/><path d="m27 23h1v1h-1z"/><path d="m28 23h1v1h-1z"/><path d="m30 23h1v1h-1z"/><path d="m31 23h1v1h-1z"/><path d="m4 24h1v1h-1z"/><path d="m5 24h1v1h-1z"/><path d="m6 24h1v1h-1z"/><path d="m8 24h1v1h-1z"/><path d="m10 24h1v1h-1z"/><path d="m11 24h1v1h-1z"/><path d="m12 24h1v1h-1z"/><path d="m13 24h1v1h-1z"/><path d="m14 24h1v1h-1z"/><path d="m15 24h1v1h-1z"/><path d="m16 24h1v1h-1z"/><path d="m17 24h1v1h-1z"/><path d="m19 24h1v1h-1z"/><path d="m21 24h1v1h-1z"/><path d="m23 24h1v1h-1z"/><path d="m24 24h1v1h-1z"/><path d="m25 24h1v1h-1z"/><path d="m26 24h1v1h-1z"/><path d="m27 24h1v1h-1z"/><path d="m28 24h1v1h-1z"/><path d="m29 24h1v1h-1z"/><path d="m31 24h1v1h-1z"/><path d="m12 25h1v1h-1z"/><path d="m13 25h1v1h-1z"/><path d="m14 25h1v1h-1z"/><path d="m16 25h1v1h-1z"/><path d="m20 25h1v1h-1z"/><path d="m24 25h1v1h-1z"/><path d="m28 25h1v1h-1z"/><path d="m30 25h1v1h-1z"/><path d="m4 26h1v1h-1z"/><path d="m5 26h1v1h-1z"/><path d="m6 26h1v1h-1z"/><path d="m7 26h1v1h-1z"/><path d="m8 26h1v1h-1z"/><path d="m9 26h1v1h-1z"/><path d="m10 26h1v1h-1z"/><path d="m13 26h1v1h-1z"/><path d="m16 26h1v1h-1z"/><path d="m17 26h1v1h-1z"/><path d="m18 26h1v1h-1z"/><path d="m21 26h1v1h-1z"/><path d="m22 26h1v1h-1z"/><path d="m24 26h1v1h-1z"/><path d="m26 26h1v1h-1z"/><path d="m28 26h1v1h-1z"/><path d="m29 26h1v1h-1z"/><path d="m30 26h1v1h-1z"/><path d="m31 26h1v1h-1z"/><path d="m32 26h1v1h-1z"/><path d="m4 27h1v1h-1z"/><path d="m10 27h1v1h-1z"/><path d="m12 27h1v1h-1z"/><path d="m15 27h1v1h-1z"/><path d="m16 27h1v1h-1z"/><path d="m18 27h1v1h-1z"/><path d="m20 27h1v1h-1z"/><path d="m22 27h1v1h-1z"/><path d="m24 27h1v1h-1z"/><path d="m28 27h1v1h-1z"/><path d="m29 27h1v1h-1z"/><path d="m30 27h1v1h-1z"/><path d="m31 27h1v1h-1z"/><path d="m32 27h1v1h-1z"/><path d="m4 28h1v1h-1z"/><path d="m6 28h1v1h-1z"/><path d="m7 28h1v1h-1z"/><path d="m8 28h1v1h-1z"/><path d="m10 28h1v1h-1z"/><path d="m14 28h1v1h-1z"/><path d="m17 28h1v1h-1z"/><path d="m18 28h1v1h-1z"/><path d="m20 28h1v1h-1z"/><path d="m23 28h1v1h-1z"/><path d="m24 28h1v1h-1z"/><path d="m25 28h1v1h-1z"/><path d="m26 28h1v1h-1z"/><path d="m27 28h1v1h-1z"/><path d="m28 28h1v1h-1z"/><path d="m30 28h1v1h-1z"/><path d="m31 28h1v1h-1z"/><path d="m32 28h1v1h-1z"/><path d="m4 29h1v1h-1z"/><path d="m6 29h1v1h-1z"/><path d="m7 29h1v1h-1z"/><path d="m8 29h1v1h-1z"/><path d="m10 29h1v1h-1z"/><path d="m13 29h1v1h-1z"/><path d="m14 29h1v1h-1z"/><path d="m17 29h1v1h-1z"/><path d="m18 29h1v1h-1z"/><path d="m20 29h1v1h-1z"/><path d="m21 29h1v1h-1z"/><path d="m23 29h1v1h-1z"/><path d="m25 29h1v1h-1z"/><path d="m26 29h1v1h-1z"/><path d="m29 29h1v1h-1z"/><path d="m4 30h1v1h-1z"/><path d="m6 30h1v1h-1z"/><path d="m7 30h1v1h-1z"/><path d="m8 30h1v1h-1z"/><path d="m10 30h1v1h-1z"/><path d="m12 30h1v1h-1z"/><path d="m15 30h1v1h-1z"/><path d="m20 30h1v1h-1z"/><path d="m21 30h1v1h-1z"/><path d="m22 30h1v1h-1z"/><path d="m24 30h1v1h-1z"/><path d="m25 30h1v1h-1z"/><path d="m26 30h1v1h-1z"/><path d="m29 30h1v1h-1z"/><path d="m30 30h1v1h-1z"/><path d="m31 30h1v1h-1z"/><path d="m32 30h1v1h-1z"/><path d="m4 31h1v1h-1z"/><path d="m10 31h1v1h-1z"/><path d="m12 31h1v1h-1z"/><path d="m13 31h1v1h-1z"/><path d="m14 31h1v1h-1z"/><path d="m17 31h1v1h-1z"/><path d="m20 31h1v1h-1z"/><path d="m22 31h1v1h-1z"/><path d="m24 31h1v1h-1z"/><path d="m25 31h1v1h-1z"/><path d="m26 31h1v1h-1z"/><path d="m27 31h1v1h-1z"/><path d="m29 31h1v1h-1z"/><path d="m30 31h1v1h-1z"/><path d="m32 31h1v1h-1z"/><path d="m4 32h1v1h-1z"/><path d="m5 32h1v1h-1z"/><path d="m6 32h1v1h-1z"/><path d="m7 32h1v1h-1z"/><path d="m8 32h1v1h-1z"/><path d="m9 32h1v1h-1z"/><path d="m10 32h1v1h-1z"/><path d="m12 32h1v1h-1z"/><path d="m15 32h1v1h-1z"/><path d="m16 32h1v1h-1z"/><path d="m17 32h1v1h-1z"/><path d="m20 32h1v1h-1z"/><path d="m22 32h1v1h-1z"/><path d="m26 32h1v1h-1z"/><path d="m27 32h1v1h-1z"/><path d="m28 32h1v1h-1z"/><path d="m30 32h1v1h-1z"/><path d="m31 32h1v1h-1z"/><path d="m32 32h1v1h-1z"/></svg>